<?xml version="1.0" encoding="utf-8"?>
<!-- Generator: Adobe Illustrator 16.0.0, SVG Export Plug-In . SVG Version: 6.00 Build 0)  -->
<!DOCTYPE svg PUBLIC "-//W3C//DTD SVG 1.1//EN" "http://www.w3.org/Graphics/SVG/1.1/DTD/svg11.dtd">
<svg version="1.1" id="Слой_1" xmlns="http://www.w3.org/2000/svg" xmlns:xlink="http://www.w3.org/1999/xlink" x="0px" y="0px"
	 width="90.413px" height="45.107px" viewBox="0 0 90.413 45.107" enable-background="new 0 0 90.413 45.107" xml:space="preserve">
<path fill="#A7A9AB" d="M88.418,24.812c-1.197-2.479-2.783-4.791-4.704-6.93c0.598-0.986,0.898-2.142,0.898-3.467
	c0-1.754-0.728-3.169-2.227-4.278c-1.499-1.156-3.079-1.885-4.835-2.224c-0.768,0-0.984,0.297-0.601,0.813
	c0.729,0.125,1.497,0.381,2.313,0.684c0.771,0.342,1.497,0.768,2.138,1.24c0.642,0.514,1.157,1.112,1.587,1.753
	c0.428,0.689,0.641,1.414,0.641,2.185c0,1.026-0.213,1.838-0.687,2.524c-1.196-1.158-2.479-2.184-3.852-3.168
	c-1.367-0.939-2.781-1.838-4.32-2.609c-0.127-1.197-0.642-2.227-1.54-3.124c-0.343-0.297-0.728-0.644-1.157-0.901
	c-0.641-0.471-1.411-0.854-2.224-1.15c-1.368-0.56-2.908-0.944-4.578-1.202c-0.938-0.173-1.926-0.257-2.824-0.344
	c-0.386,0-0.771-0.038-1.113-0.038c-0.384-0.049-0.726-0.049-1.111-0.049h-0.984c-0.641-0.425-1.327-0.812-2.054-1.152
	c-0.726-0.344-1.498-0.686-2.313-0.985c-0.51-0.171-1.069-0.342-1.625-0.472c-0.128-0.042-0.258-0.083-0.384-0.126
	c-1.583-0.384-3.21-0.685-4.836-0.813c-0.857-0.087-1.755-0.129-2.61-0.129c-0.897,0-1.756,0.042-2.609,0.129
	c-1.625,0.127-3.254,0.428-4.879,0.813c-0.126,0.043-0.258,0.084-0.384,0.126c-0.556,0.13-1.071,0.301-1.584,0.472
	c-0.854,0.299-1.626,0.641-2.353,0.985c-0.727,0.34-1.414,0.728-2.055,1.152h-0.983c-0.385,0-0.727,0-1.111,0.049
	c-0.342,0-0.727,0-1.07,0.038C27.4,4.7,26.418,4.784,25.479,4.957c-1.674,0.258-3.171,0.642-4.541,1.202
	c-0.812,0.296-1.583,0.679-2.226,1.15c-0.429,0.257-0.811,0.604-1.156,0.901c-0.897,0.896-1.412,1.927-1.541,3.124
	c-1.498,0.771-2.951,1.67-4.319,2.609c-1.369,0.984-2.655,2.01-3.852,3.168c-0.429-0.686-0.686-1.498-0.686-2.524
	c0-0.771,0.215-1.496,0.6-2.185c0.383-0.641,0.938-1.24,1.583-1.753c0.684-0.472,1.41-0.898,2.181-1.24
	c0.814-0.302,1.584-0.559,2.311-0.684c0.385-0.515,0.212-0.813-0.598-0.813C11.526,8.251,9.9,8.981,8.402,10.137
	c-1.5,1.109-2.228,2.523-2.228,4.278c0,1.325,0.302,2.481,0.899,3.467c-1.924,2.139-3.508,4.45-4.704,6.93
	c-1.202,2.482-1.756,5.137-1.756,8.004c0,1.283,0.169,2.566,0.554,3.893c0.429,1.326,1.029,2.565,1.797,3.679
	c0.816,1.112,1.798,2.054,2.952,2.782c1.156,0.726,2.528,1.113,4.154,1.113c1.838,0,3.25-0.515,4.189-1.456
	c0.984-0.938,1.458-2.182,1.458-3.636c0-0.942-0.256-1.883-0.771-2.827c-0.556-0.981-1.498-1.454-2.823-1.454
	c-1.114,0-2.013,0.347-2.654,1.026c-0.685,0.731-1.025,1.584-1.025,2.654c0,0.728,0.212,1.369,0.597,1.884
	c0.428,0.554,0.985,0.854,1.711,1.025c0.257,0.13,0.473,0.043,0.641-0.213c0.171-0.259,0.13-0.516-0.042-0.686
	c-0.983-0.298-1.498-0.981-1.498-2.096c0-0.598,0.217-1.112,0.602-1.499c0.382-0.385,0.939-0.595,1.668-0.595
	c1.495,0,2.223,0.812,2.223,2.479c0,2.652-1.456,3.982-4.406,3.982c-1.072,0-2.055-0.302-3.04-0.899
	c-0.94-0.6-1.797-1.372-2.523-2.268c-0.729-0.943-1.328-2.012-1.752-3.255c-0.429-1.243-0.641-2.438-0.641-3.635
	c0-2.525,0.554-4.92,1.626-7.233c1.109-2.266,2.563-4.363,4.361-6.29c1.113,1.199,2.653,2.053,4.579,2.612
	c1.841,0.554,3.896,0.855,6.162,0.855h0.299c1.927,0,3.767-0.34,5.523-0.985c1.281-0.472,2.568-1.07,3.851-1.715
	c0.343-0.167,0.728-0.384,1.07-0.554c0.127-0.086,0.299-0.171,0.429-0.214c0.253,0.214,0.554,0.383,0.897,0.557
	c0.856,0.515,1.797,0.855,2.823,1.026c0.47,0.042,0.944,0.087,1.453,0.087c0.303,0,0.602,0,0.9-0.045
	c0.514-0.042,1.028-0.126,1.584-0.256c0.258-0.041,0.554-0.127,0.856-0.258c1.067-0.344,2.096-0.812,3.037-1.409
	c0.13-0.342,0-0.514-0.426-0.514c-0.728,0.256-1.67,0.514-2.781,0.812c-0.216,0.043-0.474,0.085-0.686,0.127
	c-0.556,0.129-1.071,0.172-1.584,0.216c-0.341,0.04-0.642,0.04-0.9,0.04c-0.509,0-1.024-0.04-1.453-0.084
	c-1.026-0.172-1.838-0.513-2.523-1.024c0.814-0.472,1.67-0.986,2.523-1.543c0.727-0.512,1.5-0.983,2.226-1.538
	c0.041,0,0.085-0.044,0.127-0.044c0.514-0.387,1.028-0.771,1.584-1.112c1.068-0.729,2.141-1.413,3.295-2.139
	c0.681,0.385,1.369,0.769,1.968,1.197c0.641,0.428,1.241,0.897,1.797,1.412c-0.944,1.24-1.412,2.566-1.412,3.977
	c0,0.942,0.212,1.713,0.599,2.354c0.426,0.599,0.94,0.942,1.625,0.942c0.642,0,1.198-0.344,1.582-0.942
	c0.388-0.641,0.599-1.412,0.599-2.354c0-1.411-0.468-2.737-1.413-3.977c0.561-0.557,1.157-1.029,1.842-1.499
	c0.601-0.384,1.242-0.774,1.968-1.11c1.112,0.726,2.182,1.41,3.252,2.139c0.556,0.34,1.07,0.725,1.625,1.112
	c0,0,0.046,0.044,0.087,0.044c0.728,0.555,1.5,1.026,2.226,1.538c0.854,0.557,1.711,1.071,2.568,1.543
	c-0.686,0.511-1.54,0.852-2.568,1.024c-0.43,0.044-0.899,0.084-1.413,0.084c-0.298,0-0.598,0-0.899-0.04
	c-0.51-0.044-1.069-0.087-1.625-0.216c-0.213-0.042-0.429-0.084-0.682-0.127c-1.115-0.297-2.059-0.556-2.785-0.812
	c-0.471,0-0.598,0.172-0.385,0.514c0.899,0.597,1.929,1.065,3.04,1.409c0.256,0.131,0.554,0.217,0.812,0.258
	c0.556,0.13,1.07,0.214,1.625,0.256c0.302,0.045,0.602,0.045,0.899,0.045c0.468,0,0.943-0.045,1.413-0.087
	c0.983-0.171,1.924-0.472,2.866-0.983c0.299-0.13,0.602-0.301,0.899-0.515c0.129,0.087,0.255,0.128,0.384,0.214
	c0.342,0.215,0.728,0.385,1.113,0.556c1.283,0.684,2.565,1.198,3.853,1.67c1.798,0.641,3.636,0.942,5.477,0.942h0.297
	c2.268,0,4.323-0.301,6.163-0.855c1.925-0.559,3.465-1.414,4.62-2.612c1.757,1.927,3.209,4.024,4.324,6.29
	c1.066,2.313,1.627,4.708,1.627,7.233c0,1.197-0.217,2.392-0.647,3.635c-0.424,1.243-1.022,2.312-1.751,3.255
	c-0.726,0.896-1.584,1.668-2.523,2.268c-0.984,0.598-1.97,0.899-3.038,0.899c-2.912,0-4.366-1.33-4.366-3.982
	c0-1.667,0.728-2.479,2.185-2.479c0.727,0,1.282,0.21,1.667,0.595c0.428,0.387,0.601,0.901,0.601,1.499
	c0,1.114-0.471,1.798-1.5,2.096c-0.17,0.17-0.213,0.427-0.041,0.686c0.173,0.256,0.384,0.343,0.642,0.213
	c0.727-0.171,1.328-0.472,1.712-1.025c0.383-0.515,0.6-1.156,0.6-1.884c0-1.07-0.343-1.923-0.983-2.654
	c-0.687-0.68-1.586-1.026-2.696-1.026c-1.328,0-2.27,0.473-2.784,1.454c-0.556,0.944-0.813,1.885-0.813,2.827
	c0,1.454,0.475,2.697,1.458,3.636c0.938,0.941,2.352,1.456,4.234,1.456c1.585,0,2.954-0.388,4.11-1.113
	c1.155-0.729,2.136-1.67,2.95-2.782c0.77-1.113,1.369-2.353,1.798-3.679c0.385-1.326,0.597-2.609,0.597-3.893
	C90.215,29.948,89.618,27.293,88.418,24.812z M63.817,10.949c-0.047-0.428-0.173-0.86-0.3-1.327c1.54,0.128,3.12,0.428,4.791,0.899
	c1.282,0.339,2.523,0.812,3.764,1.327c0.385,0.126,0.728,0.297,1.112,0.47c-0.168,0.599-0.554,1.07-1.112,1.453
	c-0.256,0.171-0.554,0.342-0.897,0.472c-1.069,0.427-2.313,0.641-3.766,0.641c-1.155,0-2.312-0.256-3.592-0.771
	c0.084-0.342,0.084-0.939,0.084-1.795C63.901,11.849,63.901,11.377,63.817,10.949z M61.333,5.555c0.342,0,0.728,0.043,1.113,0.043
	c0.685,0.043,1.41,0.127,2.142,0.259c1.324,0.169,2.609,0.465,3.807,0.899c1.196,0.381,2.225,0.896,3.037,1.539
	c0.258,0.171,0.471,0.34,0.641,0.554c0.471,0.517,0.814,1.115,0.985,1.754c-0.298-0.125-0.641-0.258-0.985-0.383
	c-1.367-0.554-2.781-0.981-4.192-1.283c-1.712-0.427-3.379-0.642-5.049-0.728c-0.127-0.171-0.257-0.386-0.385-0.598
	c-0.217-0.303-0.428-0.561-0.684-0.816c-0.127-0.171-0.258-0.341-0.43-0.512c-0.255-0.256-0.556-0.515-0.898-0.728H61.333z
	 M62.618,12.49c0,0.213,0,0.384-0.044,0.514c-0.042,0.126-0.042,0.298-0.042,0.512c-0.043-0.041-0.086-0.041-0.086-0.084
	c-0.386-0.174-0.771-0.39-1.113-0.598c-0.429-0.257-0.854-0.558-1.283-0.858c-0.044,0-0.044,0-0.086,0
	c-0.812-0.598-1.67-1.197-2.524-1.838c0.728-0.131,1.5-0.257,2.268-0.386h0.343c0.429-0.084,0.854-0.084,1.283-0.128h0.599
	c0.214,0.467,0.346,0.942,0.515,1.414C62.574,11.458,62.618,11.975,62.618,12.49z M58.552,5.555
	c0.556,0.344,1.029,0.728,1.498,1.156c0.514,0.474,0.94,0.983,1.283,1.499c-0.429,0.042-0.854,0.042-1.283,0.086
	c-0.983,0.083-1.927,0.171-2.866,0.296c-0.43,0.092-0.899,0.133-1.327,0.219c-0.345-0.257-0.684-0.471-0.985-0.73
	c-0.213-0.13-0.383-0.257-0.555-0.386c-0.344-0.254-0.687-0.472-1.07-0.724c-0.171-0.089-0.384-0.213-0.6-0.347
	c0.216-0.043,0.429-0.126,0.6-0.169c0.556-0.171,1.07-0.296,1.625-0.427c0.772-0.169,1.54-0.301,2.313-0.385
	C57.652,5.599,58.082,5.555,58.552,5.555z M35.959,3.674c0.514-0.169,1.028-0.343,1.584-0.472c0.554-0.172,1.155-0.301,1.797-0.387
	c1.155-0.209,2.311-0.384,3.467-0.468c0.853-0.042,1.752-0.087,2.609-0.087c0.855,0,1.753,0.044,2.61,0.087
	c1.155,0.084,2.313,0.259,3.468,0.468c0.596,0.086,1.196,0.214,1.752,0.387c0.556,0.128,1.115,0.303,1.625,0.472
	c0.772,0.298,1.5,0.599,2.185,0.982c-0.771,0.086-1.497,0.17-2.185,0.258c-0.343,0.043-0.681,0.089-1.025,0.127
	c-0.17,0.044-0.383,0.044-0.6,0.087c-0.768,0.126-1.584,0.343-2.352,0.598c-0.9-0.471-1.844-0.856-2.868-1.07
	c-0.813-0.214-1.711-0.301-2.61-0.301c-0.897,0-1.795,0.087-2.609,0.258c-1.029,0.256-1.968,0.602-2.867,1.113
	c-0.813-0.254-1.626-0.471-2.396-0.598c-0.212-0.043-0.43-0.043-0.601-0.087c-0.34-0.038-0.682-0.084-0.984-0.127
	c-0.727-0.087-1.454-0.171-2.224-0.258C34.462,4.273,35.19,3.972,35.959,3.674z M48.668,6.455c-0.214,0.043-0.429,0.126-0.642,0.213
	c-0.299,0.127-0.641,0.257-0.982,0.345c-0.558,0.209-1.113,0.467-1.628,0.724c-0.554-0.256-1.115-0.515-1.668-0.724
	c-0.3-0.088-0.642-0.218-0.941-0.302c-0.215-0.087-0.473-0.173-0.686-0.256c0.212-0.131,0.47-0.258,0.686-0.342
	c0.813-0.299,1.667-0.47,2.609-0.47c0.94,0,1.797,0.171,2.61,0.47C48.239,6.241,48.454,6.323,48.668,6.455z M30.783,6.711
	c0.426-0.428,0.898-0.812,1.456-1.156c0.469,0,0.899,0.043,1.368,0.087c0.772,0.084,1.541,0.216,2.353,0.385
	c0.514,0.131,1.028,0.256,1.584,0.427c0.172,0.043,0.384,0.126,0.6,0.169c-0.216,0.133-0.428,0.258-0.6,0.347
	c-0.385,0.251-0.727,0.47-1.071,0.724c-0.17,0.129-0.343,0.256-0.514,0.386c-0.341,0.259-0.683,0.473-1.025,0.73
	c-0.429-0.085-0.899-0.127-1.328-0.219c-0.939-0.125-1.882-0.213-2.823-0.296c-0.427-0.044-0.897-0.044-1.326-0.086
	C29.841,7.694,30.268,7.185,30.783,6.711z M33.349,10.137c-0.854,0.642-1.71,1.24-2.525,1.838c-0.042,0-0.042,0-0.042,0
	c-0.427,0.301-0.856,0.602-1.326,0.858c-0.342,0.208-0.727,0.424-1.07,0.598c-0.042,0.043-0.086,0.043-0.133,0.084
	c0-0.214,0-0.385-0.039-0.512c-0.045-0.13-0.045-0.301-0.045-0.514c0-0.515,0.084-1.031,0.217-1.454
	c0.125-0.472,0.299-0.947,0.469-1.414h0.601c0.429,0.044,0.854,0.044,1.326,0.128h0.341C31.896,9.88,32.623,10.005,33.349,10.137z
	 M18.713,8.85c0.212-0.213,0.432-0.383,0.643-0.554c0.856-0.643,1.84-1.157,3.038-1.539c1.202-0.434,2.482-0.73,3.851-0.899
	c0.688-0.132,1.415-0.216,2.142-0.259c0.343,0,0.728-0.043,1.07-0.043h0.899c-0.303,0.213-0.601,0.472-0.899,0.728
	c-0.13,0.171-0.302,0.341-0.429,0.512c-0.212,0.256-0.427,0.514-0.641,0.816c-0.133,0.212-0.298,0.427-0.428,0.598
	c-1.626,0.086-3.341,0.301-5.048,0.728c-1.416,0.302-2.783,0.729-4.197,1.283c-0.342,0.125-0.641,0.258-0.983,0.383
	C17.903,9.964,18.245,9.366,18.713,8.85z M18.713,11.849c1.241-0.515,2.525-0.988,3.766-1.327c1.672-0.471,3.25-0.771,4.791-0.899
	c-0.125,0.467-0.21,0.899-0.296,1.327c-0.041,0.428-0.088,0.899-0.088,1.37c0,0.856,0.047,1.453,0.088,1.795
	c-1.245,0.515-2.438,0.771-3.597,0.771c-1.454,0-2.696-0.214-3.765-0.641c-0.342-0.129-0.641-0.301-0.899-0.472
	c-0.555-0.383-0.898-0.854-1.11-1.453C17.987,12.146,18.33,11.975,18.713,11.849z M28.387,18.008
	c-1.585,1.026-3.165,1.798-4.751,2.395c-1.583,0.643-3.211,0.942-4.922,0.986c-0.04,0-0.084,0-0.084,0
	c-4.407,0-7.658-0.986-9.758-2.909c2.055-2.185,4.493-4.023,7.36-5.477c0.344,0.939,1.157,1.71,2.443,2.308h0.04
	c1.284,0.599,2.908,0.899,4.882,0.899c0.682,0,1.28-0.087,1.884-0.214c0.594-0.126,1.195-0.297,1.791-0.511
	c0.304,0.81,0.646,1.538,1.117,2.138c0.04,0.084,0.125,0.17,0.171,0.258C28.512,17.921,28.426,17.966,28.387,18.008z M37.543,11.935
	c-0.556,0.341-1.071,0.642-1.584,0.982c-0.683,0.427-1.368,0.899-2.011,1.326c-0.129,0.087-0.212,0.171-0.342,0.252
	c-0.983,0.689-1.925,1.331-2.823,1.972c-0.387,0.214-0.771,0.472-1.114,0.728c-0.085-0.085-0.126-0.172-0.212-0.256
	c-0.302-0.472-0.601-1.113-0.899-1.929c0.298-0.169,0.597-0.297,0.899-0.467c0.429-0.214,0.854-0.472,1.326-0.772
	c0.384-0.256,0.768-0.515,1.153-0.811c0.559-0.384,1.114-0.815,1.67-1.242c0.556-0.431,1.156-0.858,1.756-1.286
	c0.173,0.045,0.385,0.088,0.597,0.131c0.558,0.128,1.07,0.258,1.584,0.385c0.384,0.125,0.727,0.258,1.068,0.384
	C38.27,11.501,37.885,11.719,37.543,11.935z M40.113,10.433c-0.858-0.428-1.713-0.767-2.569-0.985
	c-0.212-0.04-0.43-0.082-0.601-0.124c0.171-0.134,0.388-0.256,0.601-0.387c0.342-0.213,0.686-0.471,1.025-0.728
	c0.558-0.386,1.115-0.729,1.668-0.988c0.602,0.258,1.156,0.472,1.67,0.646c0.3,0.082,0.597,0.212,0.899,0.383
	c0.256,0.088,0.469,0.215,0.682,0.385c-0.213,0.089-0.426,0.174-0.682,0.302C41.908,9.325,41.01,9.836,40.113,10.433z
	 M46.402,18.778c0,1.198-0.345,1.796-0.986,1.796c-0.686,0-1.029-0.598-1.029-1.796c0-1.07,0.343-2.009,1.029-2.867
	C46.058,16.769,46.402,17.708,46.402,18.778z M48.026,11.677c-0.388,0.298-0.771,0.554-1.111,0.813
	c-0.559,0.428-1.069,0.854-1.499,1.327c-0.47-0.472-0.983-0.899-1.497-1.327c-0.344-0.258-0.727-0.515-1.112-0.771
	c-0.171-0.128-0.388-0.26-0.6-0.385c0.212-0.126,0.384-0.26,0.6-0.384c0.339-0.171,0.682-0.385,0.983-0.516
	c0.557-0.296,1.071-0.597,1.625-0.899c0.515,0.303,1.026,0.603,1.582,0.899c0.343,0.171,0.686,0.345,1.028,0.554
	c0.213,0.086,0.385,0.22,0.556,0.346C48.411,11.42,48.198,11.548,48.026,11.677z M49.096,9.491
	c-0.342-0.213-0.685-0.384-1.069-0.553c-0.212-0.127-0.43-0.213-0.641-0.302c0.211-0.125,0.429-0.258,0.641-0.385
	c0.343-0.171,0.642-0.301,0.939-0.428c0.561-0.212,1.072-0.383,1.629-0.602c0.512,0.258,1.067,0.602,1.628,0.988
	c0.342,0.257,0.68,0.515,1.023,0.728c0.217,0.13,0.43,0.252,0.6,0.387c-0.17,0.042-0.383,0.084-0.6,0.124
	c-0.858,0.218-1.711,0.557-2.564,0.985C50.167,10.089,49.609,9.75,49.096,9.491z M61.122,17.196
	c-0.345-0.256-0.728-0.514-1.072-0.728c-0.942-0.641-1.883-1.283-2.866-1.972c-0.085-0.081-0.213-0.165-0.344-0.252
	c-0.641-0.427-1.281-0.899-1.969-1.326c-0.51-0.341-1.069-0.642-1.625-0.982c-0.344-0.216-0.727-0.434-1.07-0.602
	c0.344-0.171,0.727-0.297,1.07-0.384c0.515-0.171,1.07-0.3,1.625-0.428c0.172-0.043,0.385-0.088,0.602-0.088
	c0.554,0.427,1.154,0.855,1.711,1.286c0.556,0.427,1.11,0.858,1.671,1.242c0.383,0.296,0.768,0.555,1.195,0.811
	c0.429,0.301,0.854,0.559,1.283,0.772c0.303,0.169,0.599,0.298,0.896,0.467c-0.298,0.815-0.594,1.457-0.896,1.929
	C61.248,17.024,61.204,17.111,61.122,17.196z M77.893,20.621c-1.67,0.511-3.593,0.769-5.693,0.769h-0.127
	c-1.67-0.044-3.335-0.343-4.92-0.986c-1.54-0.597-3.122-1.369-4.706-2.395c-0.085-0.042-0.169-0.087-0.217-0.126
	c0.048-0.087,0.132-0.174,0.217-0.258c0.426-0.6,0.769-1.328,1.071-2.138c0.595,0.214,1.196,0.385,1.797,0.511
	c0.598,0.126,1.238,0.214,1.883,0.214c1.967,0,3.593-0.301,4.875-0.899c0.044,0,0.044,0,0.044,0c1.325-0.598,2.139-1.369,2.44-2.308
	c2.868,1.453,5.304,3.292,7.401,5.477C80.933,19.419,79.604,20.106,77.893,20.621z"/>
</svg>
